<?xml version="1.0" encoding="UTF-8" standalone="no"?>
<!-- Created with Inkscape (http://www.inkscape.org/) -->

<svg
   xmlns:dc="http://purl.org/dc/elements/1.1/"
   xmlns:cc="http://creativecommons.org/ns#"
   xmlns:rdf="http://www.w3.org/1999/02/22-rdf-syntax-ns#"
   xmlns:svg="http://www.w3.org/2000/svg"
   xmlns="http://www.w3.org/2000/svg"
   xmlns:sodipodi="http://sodipodi.sourceforge.net/DTD/sodipodi-0.dtd"
   xmlns:inkscape="http://www.inkscape.org/namespaces/inkscape"
   id="svg3457"
   version="1.1"
   inkscape:version="0.91 r13725"
   width="2560"
   height="967.5"
   viewBox="0 0 2560 967.5"
   sodipodi:docname="logo_full.svg">
  <metadata
     id="metadata3463">
    <rdf:RDF>
      <cc:Work
         rdf:about="">
        <dc:format>image/svg+xml</dc:format>
        <dc:type
           rdf:resource="http://purl.org/dc/dcmitype/StillImage" />
        <dc:title></dc:title>
      </cc:Work>
    </rdf:RDF>
  </metadata>
  <defs
     id="defs3461" />
  <sodipodi:namedview
     pagecolor="#ffffff"
     bordercolor="#666666"
     borderopacity="1"
     objecttolerance="10"
     gridtolerance="10"
     guidetolerance="10"
     inkscape:pageopacity="0"
     inkscape:pageshadow="2"
     inkscape:window-width="2495"
     inkscape:window-height="1416"
     id="namedview3459"
     showgrid="false"
     inkscape:zoom="0.35355339"
     inkscape:cx="348.97471"
     inkscape:cy="751.93023"
     inkscape:window-x="65"
     inkscape:window-y="24"
     inkscape:window-maximized="1"
     inkscape:current-layer="svg3457" />
  <path
     style="fill:#2b5bb2;fill-opacity:1"
     d="M 444.83623,964.87387 C 385.66521,960.31535 322.03677,942.59616 268.39206,915.73786 135.20832,849.05679 40.72151,726.18178 10.701349,580.625 3.5297751,545.85266 1.9817321,528.83795 1.9442742,484.375 1.9068881,439.99732 3.1749303,424.64591 9.5332375,392.5 16.103493,359.28254 22.879531,336.00018 34.62673,306.27913 82.318171,185.61724 175.92734,89.66227 295.625,38.74038 414.17355,-11.692657 553.25871,-11.701678 671.875,38.715979 818.20365,100.91273 924.19754,230.02041 956.67786,385.625 c 6.87453,32.93403 9.57133,60.83974 9.54317,98.75 -0.0308,41.49281 -4.19407,76.37195 -13.74988,115.19461 C 920.75936,728.40599 836.99849,838.55246 720.625,904.44984 638.72872,950.82424 540.84407,972.27031 444.83623,964.87387 Z M 532.5,934.04095 538.125,933.125 538.44012,640.3125 C 538.63966,454.9085 538.31735,347.5 537.56146,347.5 c -0.65658,0 -8.1109,2.58869 -16.56512,5.75264 -8.45424,3.16395 -19.87134,7.09751 -25.37134,8.74123 -14.9148,4.45744 -19.1067,6.65506 -22.20883,11.64309 l -2.79117,4.48804 -0.3234,279.24891 -0.3234,279.24892 28.4484,-0.83297 c 15.64662,-0.45812 30.97965,-1.24514 34.0734,-1.74891 z M 415,583.125 C 415,391.65625 414.67441,235 414.27646,235 c -2.40436,0 -54.17661,26.60759 -56.42121,28.99686 -1.50476,1.60174 -3.73585,5.15458 -4.95796,7.8952 -2.11019,4.73209 -2.20748,18.63809 -1.93272,276.23294 0.31703,297.21766 -0.30466,356.2329 -3.82154,362.76934 l -2.16259,4.01933 10.32228,3.10015 c 17.6978,5.31529 50.59371,12.83073 57.50978,13.13875 C 414.89082,931.2452 415,913.8764 415,583.125 Z m -106.25,-10.63799 0.625,-327.3049 2.62724,-3.52856 c 1.44498,-1.9407 6.50748,-5.69684 11.25,-8.34698 4.74252,-2.65013 24.09151,-13.58358 42.99776,-24.29653 18.90625,-10.71297 40.80949,-22.80527 48.67387,-26.87178 13.93162,-7.20376 14.514,-7.38151 22.67455,-6.9204 7.78907,0.44013 9.1514,0.98837 19.45113,7.82754 25.95457,17.23424 146.93169,102.74903 153.57896,108.55996 3.33823,2.91823 3.89879,5.11423 7.30845,28.63084 2.08065,14.35038 6.7059,25.06706 14.70099,34.06216 10.10289,11.36654 36.75654,29.15622 50.9731,34.02143 8.41097,2.87841 13.24004,7.26356 15.00685,13.62734 0.96864,3.48887 1.37019,74.18952 1.37512,242.11537 0.004,130.45312 0.27097,237.1875 0.59363,237.1875 1.46341,0 23.9877,-13.8526 37.98855,-23.36324 C 798.50207,817.17907 847.57163,762.98885 882.1085,699.375 961.84898,552.50016 953.94063,372.89914 861.61126,233.87601 844.30314,207.81464 827.32157,187.19114 803.81521,163.68479 752.77405,112.64361 697.12405,77.787255 630,54.81569 581.56169,38.238863 536.85545,30.940654 483.75,30.940654 c -53.00978,0 -94.64123,6.726003 -144.375,23.325317 C 289.40899,70.9428 242.45792,96.6194 200.12601,130.41847 179.96665,146.51432 146.54621,179.92656 130.48842,200.03896 75.529112,268.87563 42.328002,349.59153 33.077976,436.85554 30.42783,461.85679 31.097502,519.81425 34.298651,542.5 41.616217,594.35779 55.42089,639.09565 78.269591,685 118.1992,765.22086 178.6107,829.76274 256.58911,875.51135 c 14.57549,8.55119 49.92896,25.88719 50.87109,24.94524 0.36564,-0.36557 0.94605,-147.95188 1.2898,-327.96958 z m 1195.1746,72.35733 c -44.5861,-3.88048 -80.3735,-29.79244 -98.0745,-71.01119 -8.0586,-18.76534 -8.71,-23.90454 -9.2788,-73.2027 -0.3505,-30.38747 -0.045,-48.23312 0.9396,-54.97042 4.3704,-29.88973 19.8001,-57.81102 42.1977,-76.3601 10.2547,-8.49259 29.9175,-18.42433 43.4164,-21.92968 12.8829,-3.34539 41.0761,-4.57299 55.7495,-2.42746 50.442,7.3756 86.9068,41.52232 98.8403,92.55721 2.0546,8.78668 2.6021,16.79795 3.1647,46.30295 0.9996,52.42184 -1.5094,71.91453 -12.1962,94.75145 -2.6844,5.73617 -7.353,13.89242 -10.3748,18.125 -7.6045,10.65164 -23.7269,25.72227 -34.1271,31.90096 -21.7886,12.94435 -50.8144,18.82643 -80.2568,16.26398 z m 34.592,-47.18206 c 18.192,-5.67928 31.7699,-20.44518 39.8155,-43.29928 l 3.5163,-9.988 0.4107,-45.4949 c 0.4672,-51.74529 -0.1411,-57.06246 -8.5217,-74.5051 -11.5763,-24.09351 -29.8288,-35.625 -56.3886,-35.625 -18.3359,0 -31.9793,5.64945 -43.1434,17.86469 -7.6881,8.41207 -13.2415,18.75152 -16.948,31.5542 -2.7785,9.59733 -2.8824,11.62277 -2.8824,56.20611 0,40.23905 0.286,47.30597 2.2003,54.375 6.2662,23.1398 20.8767,41.37288 38.4601,47.9959 12.9032,4.86019 29.7135,5.21447 43.4812,0.91638 z m 889.6084,47.7435 c -20.8166,-1.4677 -40.9979,-7.26433 -56.0554,-16.1007 -20.0099,-11.74257 -39.8942,-35.19053 -48.3291,-56.99025 -7.8795,-20.36473 -8.7076,-27.77683 -8.7076,-77.93983 0,-39.08427 0.3069,-46.47894 2.3341,-56.25 8.371,-40.34629 36.1547,-73.63625 72.5389,-86.91485 16.342,-5.96407 30.1961,-7.84757 51.9691,-7.06532 10.4479,0.37537 22.2122,1.53832 26.5694,2.6265 36.1593,9.03065 63.4411,31.42918 79.1165,64.95513 9.4821,20.27999 12.4391,39.92714 12.4391,82.64854 0,27.91724 -1.4146,47.23456 -4.4155,60.29664 -9.8576,42.90809 -44.07,77.65686 -85.756,87.1008 -12.0995,2.74112 -31.0013,4.38791 -41.7035,3.63334 z m 26.25,-46.83172 c 8.9255,-2.32626 19.2944,-8.77783 26.342,-16.39013 7.7765,-8.39948 12.7211,-17.42147 16.978,-30.97798 2.8583,-9.1024 2.93,-10.49437 2.93,-56.83095 0,-46.23769 -0.077,-47.74914 -2.9145,-56.875 -7.9407,-25.54317 -25.036,-43.02204 -46.6012,-47.64695 -3.6928,-0.79197 -12.2113,-1.15936 -19.4337,-0.83815 -11.6938,0.52008 -13.6992,0.98723 -22.1355,5.1567 -12.178,6.01869 -21.985,16.44325 -28.4141,30.2034 -7.7542,16.59634 -8.626,23.67016 -8.626,70 0,47.56194 0.828,53.86866 9.3711,71.37425 11.9388,24.46384 32.3523,36.52898 58.7539,34.72563 4.8125,-0.32872 11,-1.18409 13.75,-1.90082 z M 1073.75,494.35694 l 0,-146.89307 38.2424,0.33057 38.2424,0.33056 37.1603,107.79855 c 20.4382,59.2892 37.5416,108.17982 38.0076,108.64582 0.466,0.46602 1.0715,0.61292 1.3456,0.32647 0.4224,-0.44159 63.7751,-181.49763 72.8971,-208.33334 l 3.0805,-9.0625 38.0121,0 38.012,0 0,146.875 0,146.875 -28.75,0 -28.75,0 0,-100.72916 c 0,-73.08821 -0.3797,-100.6026 -1.3837,-100.26793 -0.7612,0.25369 -10.2335,24.90994 -21.0499,54.79168 -10.8165,29.88172 -27.144,75.00228 -36.2835,100.26791 l -16.6174,45.9375 -19.7059,0 -19.706,0 -3.2805,-9.0625 c -1.8043,-4.98438 -18.104,-50.1017 -36.2215,-100.26071 -18.1175,-50.15901 -33.5733,-91.40901 -34.3462,-91.66666 -1.0328,-0.34425 -1.4054,26.23976 -1.4054,100.26071 l 0,100.72916 -28.75,0 -28.75,0 0,-146.89306 z m 583.75,0.009 0,-147.05024 62.1875,0.54242 c 65.614,0.57232 67.5324,0.72762 85.3181,6.90633 38.1139,13.24072 66.6045,45.33166 75.6734,85.23614 2.8374,12.48534 4.0974,79.96215 1.8089,96.875 -4.0853,30.19163 -14.8413,51.99829 -35.1464,71.25545 -15.9525,15.1291 -30.4519,23.20416 -52.3271,29.14217 l -11.8894,3.22735 -62.8125,0.45782 -62.8125,0.45781 0,-147.05025 z m 113.7258,101.80149 c 24.8898,-4.03818 46.0075,-26.12892 51.9,-54.29184 2.7661,-13.21986 2.6465,-82.34792 -0.1639,-94.75324 -5.4559,-24.08285 -18.4708,-41.06029 -38.7644,-50.56659 -7.2724,-3.40668 -7.5344,-3.43297 -38.26,-3.83885 L 1715,392.30799 l 0,101.76284 c 0,55.96956 0.375,102.13785 0.8334,102.59617 1.3443,1.34448 46.5384,0.93666 55.3924,-0.49982 z M 1905,494.375 l 0,-146.875 29.375,0 29.375,0 0,146.875 0,146.875 -29.375,0 -29.375,0 0,-146.875 z m 87.5,0 0,-146.875 37.9791,0 37.9793,0 8.5437,24.6875 c 4.6992,13.57812 21.5244,62.33655 37.3895,108.35205 15.8651,46.0155 29.3829,83.83718 30.0395,84.04816 0.6566,0.211 17.1783,-45.5943 36.7146,-101.78955 19.5365,-56.19524 36.6302,-105.12629 37.986,-108.73566 l 2.4653,-6.5625 37.9515,0 37.9515,0 0,146.875 0,146.875 -28.75,0 -28.75,0 0,-100.72916 c 0,-78.39683 -0.3363,-100.6171 -1.5165,-100.22369 -0.834,0.27803 -17.8479,45.61941 -37.8085,100.75865 l -36.292,100.25318 -19.8097,-0.34199 -19.8098,-0.34199 -31.1213,-86.25 C 2051.9554,438.84369 2052.3854,440 2051.1136,440 2050.4714,440 2050,482.58606 2050,540.625 l 0,100.625 -28.75,0 -28.75,0 0,-146.875 z"
     id="path3467"
     inkscape:connector-curvature="0" />
</svg>
